<svg xmlns="http://www.w3.org/2000/svg" xmlns:xlink="http://www.w3.org/1999/xlink" viewBox="0 0 956 494">
  <g class="cls-1mf">
    <g id="Coat_GoT" data-name="Coat GoT">
      <path class="cls-2mf" d="M212.37,66.55h3.56V100.2h-3.56q-2.16-15.53-11.77-24.59a32.84,32.84,0,0,0-23.36-9.06q-14.19,0-24.74,10.54T142,114.53q0,26.81,10.18,38a32.77,32.77,0,0,0,25.25,11.18,30.89,30.89,0,0,0,14-3.16q6.32-3.15,8.62-7.68a25.27,25.27,0,0,0,2.3-11.44q0-8.1-1.08-10.81A6.14,6.14,0,0,0,198,127q-2.24-.93-8.17-.93h-2.38v-3.56h43.45V126c-4.8,0-8.06.48-9.76,1.45a7.15,7.15,0,0,0-3.38,4.83q-.83,3.38-.82,16.38v10.69a19.54,19.54,0,0,0-3.2-.3q-5.72,0-15,3.5-12.63,4.74-23.4,4.75-21.62,0-35.94-14.23T125,117.05a57.14,57.14,0,0,1,13.67-37.88q13.67-16.26,37.13-16.26Z"/>
      <path class="cls-2mf" d="M268.41,127.52H243.93l-1.66,4.08q-3.72,8.9-3.71,11.6a5.19,5.19,0,0,0,2,4.4,8.13,8.13,0,0,0,5.06,1.5v2.18H226.44V149.1a10.37,10.37,0,0,0,6.37-3q2.08-2.36,5-9.91.24-.72,2.29-5.52l18.73-44.73h1.85l21.53,51.2,2.95,6.75a9,9,0,0,0,2.69,3.59,9.79,9.79,0,0,0,5.06,1.64v2.18H267.6V149.1q4.66,0,6.3-.69a2.68,2.68,0,0,0,1.64-2.73q0-1.05-2.19-6.23Zm-.81-2.14L256.19,97.9l-11.36,27.48Z"/>
      <path class="cls-2mf" d="M375.47,86.85v6.08c0,1.46.28,4.61.28,10V134.5a78.5,78.5,0,0,0,.38,10,5.13,5.13,0,0,0,1.92,3.5q1.54,1.14,5.92,1.14h2.85v2.18H356V149.1h2.28q4.09,0,5.68-1a4.89,4.89,0,0,0,2-3.25,69.39,69.39,0,0,0,.45-10.3v-41L341,151.28h-2.23L313,93.48v37.74a77.27,77.27,0,0,0,.47,10.56,8.21,8.21,0,0,0,2.95,4.92,11.54,11.54,0,0,0,6.94,2.4v2.18H300.31V149.1a11.74,11.74,0,0,0,6.72-2.26,8.13,8.13,0,0,0,3.16-5,68.37,68.37,0,0,0,.57-10.93v-28a65.71,65.71,0,0,0-.45-9.93l.26-6.11,9.37,0,23.62,53.33,23.49-53.33Z"/>
      <path class="cls-2mf" d="M424.15,112.92l-.95,15.73h-2c0-4-.26-6.59-.8-7.93a4.25,4.25,0,0,0-2.34-2.62,15.87,15.87,0,0,0-5.21-.6h-6.29v16.8q0,12.62,1.31,14.84t7.05,2.23h4.26a16.71,16.71,0,0,0,7.42-1.44q2.91-1.44,5.55-5.92a39.19,39.19,0,0,0,4.16-12.33h2l-1.22,22.1H389.74v-2.41h1.18q4.26,0,5.51-1.42a7,7,0,0,0,1.58-3.58,105.16,105.16,0,0,0,.33-11.07V100.48A98.42,98.42,0,0,0,398,89.8a5.32,5.32,0,0,0-1.65-3.58c-.86-.68-2.66-1-5.42-1V82.79H431.8l1.35,17.69h-2q-1.35-7.42-3.31-10.54A8.53,8.53,0,0,0,423.2,86a33.31,33.31,0,0,0-8.7-.81h-7.93V115h6.08c2.78,0,4.73-.29,5.84-.89A25.38,25.38,0,0,1,424.15,112.92Z"/>
      <path class="cls-2mf" d="M636.32,121.64h3.6V161.4h-3.6a30.47,30.47,0,0,0-5.44-12q-15,16.9-38.25,16.91-24.61,0-40.22-15.57T536.8,109.59A71.75,71.75,0,0,1,544,77.9q7.18-14.85,20.09-22.05a57,57,0,0,1,28.29-7.2,50.3,50.3,0,0,1,23.06,5.23q10.34,5.23,15.44,11.59a41.56,41.56,0,0,0,4.36-14.73h3.68l1,43h-3.6Q632.55,70.84,621,61.87a41.71,41.71,0,0,0-26.16-8.95q-17.84,0-28.34,14.48T556,108.83q0,25.53,11.46,39.13T596,161.57a44,44,0,0,0,18.66-4.44q9.55-4.44,15.11-15A56.29,56.29,0,0,0,636.32,121.64Z"/>
      <path class="cls-2mf" d="M713.33,85.13h26v2.69c-3.44.23-6,1-7.72,2.36a8.12,8.12,0,0,0-3.13,4.52,53.2,53.2,0,0,0-.57,9.74v26.3a104.32,104.32,0,0,1-.78,15,20.86,20.86,0,0,1-4.48,9.63,25.17,25.17,0,0,1-10.41,7.52,40,40,0,0,1-15.5,2.8q-10.4,0-17.59-3.59t-10.28-9.27q-3.06-5.69-3.07-15.25l.06-8.11V104.85q0-9.45-.55-12.19A5.32,5.32,0,0,0,663,88.87q-1.75-1.05-7.66-1.05h-1.78V85.13h35.53v2.69h-1.55q-5.74,0-7.52,1a5.07,5.07,0,0,0-2.38,3.59q-.61,2.63-.61,12.48v24.9q0,12.94,1.18,18.37t6.63,9.48q5.45,4.05,14.52,4.06a30.26,30.26,0,0,0,12.94-2.72,21,21,0,0,0,8.67-6.76,19.42,19.42,0,0,0,3.47-8.34,103,103,0,0,0,.63-13.5V103.39a40,40,0,0,0-.74-9.39,7.22,7.22,0,0,0-3.22-4.26q-2.46-1.58-7.8-1.92Z"/>
      <path class="cls-2mf" d="M768,127.63V144a106.15,106.15,0,0,0,.41,12,6.17,6.17,0,0,0,2.23,4.22c1.21.92,3.49,1.37,6.84,1.37h2.48v2.65H745.7V161.6h2c3.2,0,5.41-.42,6.65-1.26a5.78,5.78,0,0,0,2.34-3.93q.5-2.67.49-12.43V105.81a87.37,87.37,0,0,0-.49-12,5.16,5.16,0,0,0-2.21-3.73q-1.71-1-7.38-1H745.7V86.41l9.37-.34q11.25-.41,17.53-.4,11.56,0,17.83,1.89a20.8,20.8,0,0,1,10.25,6.72,18.44,18.44,0,0,1,4,12.17A22.79,22.79,0,0,1,802,117.7a17.8,17.8,0,0,1-7.83,7.4q-5.1,2.52-17.94,2.53Zm0-2.87h5.34a33.14,33.14,0,0,0,10.42-1.35,12.52,12.52,0,0,0,6.61-5.66A19.88,19.88,0,0,0,793,107.13q0-9.63-4.55-14.14T773.7,88.48a54.32,54.32,0,0,0-5.73.23Z"/>
      <path class="cls-2mf" d="M814.75,163.44v-25h2.58q4.38,24.45,20.78,24.45,7.36,0,11.42-4.68a15.61,15.61,0,0,0,4.05-10.48A14.15,14.15,0,0,0,850,137.9q-3.56-3.9-13-8.38a92,92,0,0,1-12.68-7,20.69,20.69,0,0,1-6.68-7.84,22.72,22.72,0,0,1-2.39-10.27,19.47,19.47,0,0,1,5.18-13.86A17.2,17.2,0,0,1,833.57,85a21.6,21.6,0,0,1,8.35,1.61q3.92,1.6,8.05,6.65a13,13,0,0,0,2.68-6.83h2.27v20.38h-2.27q-2-8.9-6.94-14a15.64,15.64,0,0,0-11.52-5.1q-6.24,0-9.15,3.76a13.09,13.09,0,0,0-2.92,8.23,12.54,12.54,0,0,0,3.66,9.13q3.62,3.78,13.05,8.49A130.88,130.88,0,0,1,852,124.5a19.56,19.56,0,0,1,6.58,7.54A24.08,24.08,0,0,1,861,143.18q0,10-6,16.24t-16,6.26q-11.49,0-19.18-9.81a20.9,20.9,0,0,0-2.52,7.57Z"/>
      <line class="cls-3mf" x1="472.26" y1="102.86" x2="472.26" y2="142.99"/>
      <line class="cls-3mf" x1="468.14" y1="102.86" x2="468.14" y2="142.99"/>
      <line class="cls-3mf" x1="476.37" y1="102.86" x2="476.37" y2="142.99"/>
      <path class="cls-4mf" d="M450.69,122.26q0-9.47,6.33-15.19a22.67,22.67,0,0,1,15.8-5.73q9.56,0,16,5.67t6.41,15.46q0,9.5-6.14,15.38t-16.14,5.88q-9.74,0-16-5.88T450.69,122.26Zm6.9.21q0,9.87,3.94,14.81t11.8,4.94a13.34,13.34,0,0,0,10.92-4.94q4-5,4-14.75,0-9.52-3.94-14.6t-11.46-5.08q-7.38,0-11.32,5T457.59,122.47Z"/>
      <path class="cls-4mf" d="M498.85,97.88h26.63l.33,11.79h-1.42a16.33,16.33,0,0,0-1.88-6.4,6.89,6.89,0,0,0-3.06-3.16,16.25,16.25,0,0,0-5.4-.63h-8v20.07h3.83c2.47,0,4.12-.48,4.93-1.45s1.22-2.9,1.22-5.81h1.51V129H516a17.54,17.54,0,0,0-.52-4.8,4.13,4.13,0,0,0-1.57-2.41,8.64,8.64,0,0,0-4.06-.64h-3.83v11.76a64.47,64.47,0,0,0,.25,7.31,3.89,3.89,0,0,0,1.22,2.56q1,.84,3.78.84h1.39v1.61h-19v-1.61H495a6.18,6.18,0,0,0,3.63-.77,3.64,3.64,0,0,0,1.3-2.39,58.38,58.38,0,0,0,.29-7.55V109.67a55.42,55.42,0,0,0-.29-7.29Z"/>
      <path class="cls-5mf" d="M174.22,49.6H113.63s-1.9,34.08-3.79,43.54,0,32.19,0,32.19v60.59l117.39-5.68h15.15l1.89-34.08"/>
      <polyline class="cls-5mf" points="195.04 49.59 244.27 49.59 244.83 117.76"/>
    </g>
    <g id="modal1">
      <g id="_group_" data-name="&lt;group&gt;">
        <image class="cls-6mf" width="140" height="180" transform="translate(283.51 265.51)" xlink:href="modelall-011.png"/>
        <g>
          <path class="cls-7mf" d="M305.9,310.41l-1.61-9.47a2.44,2.44,0,0,1,1.78-3c2.42-.63,23.73-7.91,62-16.16,0,0,4-1.05,5,2.57a55.65,55.65,0,0,0,2.91,7.84Z"/>
          <path class="cls-8mf" d="M303.51,318.55l38.64,102.09s28.82-3.21,56.74-14.79L382.38,298S330.94,308.39,303.51,318.55Z"/>
          <path class="cls-7mf" d="M299.84,320.15A675.2,675.2,0,0,1,386,297.7L383.7,294s-59.5,10.79-82.9,21.61Z"/>
          <path class="cls-7mf" d="M379.83,290.7s-29.91,3.93-78.06,20.35c0,0-4.43,1.16-1,4.55L383.7,294A3,3,0,0,0,379.83,290.7Z"/>
          <ellipse class="cls-9mf" cx="357.03" cy="354.88" rx="24.95" ry="26.82" transform="translate(-77.97 101.54) rotate(-14.61)"/>
        </g>
      </g>
      <g id="_group_2" data-name="&lt;group&gt;">
        <image class="cls-6mf" width="62" height="70" transform="translate(660.64 242.64)" xlink:href="modelall-012.png"/>
        <g>
          <path class="cls-10mf" d="M687.14,252.13l2.14-2.93a.91.91,0,0,1,1.29-.32c.81.48,8.4,4.33,20.72,12.51,0,0,1.34.81.61,2a21.48,21.48,0,0,0-1.36,2.85Z"/>
          <path class="cls-11mf" d="M684.3,253.63,666.87,291a89.2,89.2,0,0,0,19,11.46l24.84-32.92S694.29,258.37,684.3,253.63Z"/>
          <path class="cls-10mf" d="M682.9,253.06a253.89,253.89,0,0,1,28.79,17.39l.41-1.59s-18.61-13.26-27.71-16.74Z"/>
          <path class="cls-10mf" d="M712,266.94s-9-7.06-26.1-15.76c0,0-1.47-.89-1.48.94l27.71,16.74A1.16,1.16,0,0,0,712,266.94Z"/>
          <ellipse class="cls-9mf" cx="688.59" cy="277.69" rx="10.14" ry="9.43" transform="translate(94.87 723.53) rotate(-58.87)"/>
        </g>
      </g>
      <g class="finger" id="iconfinder_icon-24-one-finger-tap_315851" data-name="iconfinder icon-24-one-finger-tap 315851">
        <g id="icon-24-one-finger-tap">
          <path id="one-finger-tap" class="cls-12mf" d="M403.3,418.37a13.41,13.41,0,1,0-20.86,0v-8.45a10.43,10.43,0,0,1,20.86,0ZM410.75,480c12.34,0,22.35-10.68,22.35-22.35h0V439.74a4.47,4.47,0,0,0-8.94,0v1.49h-3V433.8a4.47,4.47,0,1,0-8.94,0v4.45h-3v-7.43a4.47,4.47,0,0,0-8.94,0v10.41h-3V410a4.47,4.47,0,0,0-8.94,0v33.65c-6.13-6.56-14.2-13.77-17.51-10.44S376,445.4,387.65,465c5.25,8.84,11.9,14.95,23.1,14.95Zm25.33-22.35a25.33,25.33,0,0,1-25.33,25.33c-9.27,0-19.06-4.33-25.8-16.6-9.72-17.72-22.16-29.33-16.24-35.26,4.24-4.23,10.89-.17,16.71,5.28h0V410a7.45,7.45,0,1,1,14.9,0v14.86a7.48,7.48,0,0,1,10.45,1.52,7.74,7.74,0,0,1,1,1.85,7.44,7.44,0,0,1,12.37,5.57v0a7.47,7.47,0,0,1,11.93,6Z"/>
        </g>
      </g>
      <g class="finger" id="iconfinder_icon-24-one-finger-tap_315851-2" data-name="iconfinder icon-24-one-finger-tap 315851">
        <g class="finger" id="icon-24-one-finger-tap-2" data-name="icon-24-one-finger-tap">
          <path id="one-finger-tap-2" data-name="one-finger-tap" class="cls-12mf" d="M700.39,289.94a6.39,6.39,0,1,0-9.94,0v-4a5,5,0,0,1,9.94,0Zm3.54,29.34a10.86,10.86,0,0,0,10.65-10.65h0v-8.51a2.13,2.13,0,0,0-4.26,0v.71H708.9v-3.54a2.13,2.13,0,0,0-4.26,0v2.12h-1.42v-3.54a2.13,2.13,0,1,0-4.25,0v5h-1.42v-14.9a2.13,2.13,0,1,0-4.26,0v16c-2.92-3.12-6.77-6.56-8.35-5s2.44,5.82,8,15.17c2.5,4.21,5.67,7.12,11,7.12ZM716,308.63a12.06,12.06,0,0,1-12.06,12.07c-4.42,0-9.09-2.07-12.3-7.91-4.63-8.44-10.55-14-7.73-16.8,2-2,5.18-.08,8,2.52h0V285.93a3.55,3.55,0,0,1,7.1,0V293a3.55,3.55,0,0,1,5,.72,3.43,3.43,0,0,1,.48.88,3.54,3.54,0,0,1,5.9,2.65v0a3.56,3.56,0,0,1,5.68,2.85Z"/>
        </g>
      </g>
      <g id="Path_57-2" data-name="Path 57-2">
        <g>
          <path class="cls-13mf" d="M436.16,334.93s67.95-69.61,200.67-63.71"/>
          <path class="cls-9mf" d="M648.88,272c-5.8,1.77-13,4.94-17.63,8.48l4-9.29-2.88-9.7C636.51,265.51,643.33,269.52,648.88,272Z"/>
        </g>
      </g>
      <g id="iconfinder_correct_3855625" data-name="iconfinder correct 3855625">
        <g id="correct">
          <path id="Shape" class="cls-14mf" d="M172.33,373.28a5.34,5.34,0,1,0-7.55,7.55l24.61,24.61a5.24,5.24,0,0,0,3.78,1.56h.26a5.92,5.92,0,0,0,3.9-1.95l61.59-73.83a5.36,5.36,0,0,0-8-7.1c-.06.07-.12.13-.17.2l-57.94,69.4Z"/>
          <path id="Shape-2" class="cls-15mf" d="M243.43,313.64a75.7,75.7,0,1,0,23.95,24,5.29,5.29,0,0,0-9,5.6h0a64.82,64.82,0,1,1-20.57-20.57,5.29,5.29,0,1,0,5.6-9h0Z"/>
        </g>
      </g>
      <g class="cls-1mf">
        <path class="cls-2mf" d="M441.32,388.71v15.72H436V388.71H421.4V384H436V369.86h5.32V384h14.5v4.69Z"/>
        <path class="cls-2mf" d="M486,404.43v-2.49c5.86-.44,6.49-1.51,6.49-6.59V369.71c0-3.76-.29-4.2-3.12-4.39l-3.91-.2V363c4.64-.73,10-2,16.56-3.71v36.09c0,4.88.48,6.15,6.39,6.59v2.49Z"/>
      </g>
    </g>
  </g>
</svg>
