<svg xmlns="http://www.w3.org/2000/svg" xmlns:xlink="http://www.w3.org/1999/xlink" viewBox="0 0 956 494">
 
  <g id="Coat_GoT" data-name="Coat GoT">
    <path class="cls-1mm2" d="M212.37,66.55h3.56V100.2h-3.56q-2.16-15.53-11.77-24.59a32.84,32.84,0,0,0-23.36-9.06q-14.19,0-24.74,10.54T142,114.53q0,26.81,10.18,38a32.77,32.77,0,0,0,25.25,11.18,30.89,30.89,0,0,0,14-3.16q6.32-3.15,8.62-7.68a25.27,25.27,0,0,0,2.3-11.44q0-8.1-1.08-10.81A6.14,6.14,0,0,0,198,127q-2.24-.93-8.17-.93h-2.38v-3.56h43.45V126c-4.8,0-8.06.48-9.76,1.45a7.15,7.15,0,0,0-3.38,4.83q-.83,3.38-.82,16.38v10.69a19.54,19.54,0,0,0-3.2-.3q-5.72,0-15,3.5-12.63,4.74-23.4,4.75-21.62,0-35.94-14.23T125,117.05a57.14,57.14,0,0,1,13.67-37.88q13.67-16.26,37.13-16.26Z"/>
    <path class="cls-1mm2" d="M268.41,127.52H243.93l-1.66,4.08q-3.72,8.9-3.71,11.6a5.19,5.19,0,0,0,2,4.4,8.13,8.13,0,0,0,5.06,1.5v2.18H226.44V149.1a10.37,10.37,0,0,0,6.37-3q2.08-2.36,5-9.91.24-.72,2.29-5.52l18.73-44.73h1.85l21.53,51.2,2.95,6.75a9,9,0,0,0,2.69,3.59,9.79,9.79,0,0,0,5.06,1.64v2.18H267.6V149.1q4.66,0,6.3-.69a2.68,2.68,0,0,0,1.64-2.73q0-1.05-2.19-6.23Zm-.81-2.14L256.19,97.9l-11.36,27.48Z"/>
    <path class="cls-1mm2" d="M375.47,86.85v6.08c0,1.46.28,4.61.28,10V134.5a78.5,78.5,0,0,0,.38,10,5.13,5.13,0,0,0,1.92,3.5q1.54,1.14,5.92,1.14h2.85v2.18H356V149.1h2.28q4.09,0,5.68-1a4.89,4.89,0,0,0,2-3.25,69.39,69.39,0,0,0,.45-10.3v-41L341,151.28h-2.23L313,93.48v37.74a77.27,77.27,0,0,0,.47,10.56,8.21,8.21,0,0,0,2.95,4.92,11.54,11.54,0,0,0,6.94,2.4v2.18H300.31V149.1a11.74,11.74,0,0,0,6.72-2.26,8.13,8.13,0,0,0,3.16-5,68.37,68.37,0,0,0,.57-10.93v-28a65.71,65.71,0,0,0-.45-9.93l.26-6.11,9.37,0,23.62,53.33,23.49-53.33Z"/>
    <path class="cls-1mm2" d="M424.15,112.92l-.95,15.73h-2c0-4-.26-6.59-.8-7.93a4.25,4.25,0,0,0-2.34-2.62,15.87,15.87,0,0,0-5.21-.6h-6.29v16.8q0,12.62,1.31,14.84t7.05,2.23h4.26a16.71,16.71,0,0,0,7.42-1.44q2.91-1.44,5.55-5.92a39.19,39.19,0,0,0,4.16-12.33h2l-1.22,22.1H389.74v-2.41h1.18q4.26,0,5.51-1.42a7,7,0,0,0,1.58-3.58,105.16,105.16,0,0,0,.33-11.07V100.48A98.42,98.42,0,0,0,398,89.8a5.32,5.32,0,0,0-1.65-3.58c-.86-.68-2.66-1-5.42-1V82.79H431.8l1.35,17.69h-2q-1.35-7.42-3.31-10.54A8.53,8.53,0,0,0,423.2,86a33.31,33.31,0,0,0-8.7-.81h-7.93V115h6.08c2.78,0,4.73-.29,5.84-.89A25.38,25.38,0,0,1,424.15,112.92Z"/>
    <path class="cls-1mm2" d="M636.32,121.64h3.6V161.4h-3.6a30.47,30.47,0,0,0-5.44-12q-15,16.9-38.25,16.91-24.61,0-40.22-15.57T536.8,109.59A71.75,71.75,0,0,1,544,77.9q7.18-14.85,20.09-22.05a57,57,0,0,1,28.29-7.2,50.3,50.3,0,0,1,23.06,5.23q10.34,5.23,15.44,11.59a41.56,41.56,0,0,0,4.36-14.73h3.68l1,43h-3.6Q632.55,70.84,621,61.87a41.71,41.71,0,0,0-26.16-8.95q-17.84,0-28.34,14.48T556,108.83q0,25.53,11.46,39.13T596,161.57a44,44,0,0,0,18.66-4.44q9.55-4.44,15.11-15A56.29,56.29,0,0,0,636.32,121.64Z"/>
    <path class="cls-1mm2" d="M713.33,85.13h26v2.69c-3.44.23-6,1-7.72,2.36a8.12,8.12,0,0,0-3.13,4.52,53.2,53.2,0,0,0-.57,9.74v26.3a104.32,104.32,0,0,1-.78,15,20.86,20.86,0,0,1-4.48,9.63,25.17,25.17,0,0,1-10.41,7.52,40,40,0,0,1-15.5,2.8q-10.4,0-17.59-3.59t-10.28-9.27q-3.06-5.69-3.07-15.25l.06-8.11V104.85q0-9.45-.55-12.19A5.32,5.32,0,0,0,663,88.87q-1.75-1.05-7.66-1.05h-1.78V85.13h35.53v2.69h-1.55q-5.74,0-7.52,1a5.07,5.07,0,0,0-2.38,3.59q-.61,2.63-.61,12.48v24.9q0,12.94,1.18,18.37t6.63,9.48q5.45,4.05,14.52,4.06a30.26,30.26,0,0,0,12.94-2.72,21,21,0,0,0,8.67-6.76,19.42,19.42,0,0,0,3.47-8.34,103,103,0,0,0,.63-13.5V103.39a40,40,0,0,0-.74-9.39,7.22,7.22,0,0,0-3.22-4.26q-2.46-1.58-7.8-1.92Z"/>
    <path class="cls-1mm2" d="M768,127.63V144a106.15,106.15,0,0,0,.41,12,6.17,6.17,0,0,0,2.23,4.22c1.21.92,3.49,1.37,6.84,1.37h2.48v2.65H745.7V161.6h2c3.2,0,5.41-.42,6.65-1.26a5.78,5.78,0,0,0,2.34-3.93q.5-2.67.49-12.43V105.81a87.37,87.37,0,0,0-.49-12,5.16,5.16,0,0,0-2.21-3.73q-1.71-1-7.38-1H745.7V86.41l9.37-.34q11.25-.41,17.53-.4,11.56,0,17.83,1.89a20.8,20.8,0,0,1,10.25,6.72,18.44,18.44,0,0,1,4,12.17A22.79,22.79,0,0,1,802,117.7a17.8,17.8,0,0,1-7.83,7.4q-5.1,2.52-17.94,2.53Zm0-2.87h5.34a33.14,33.14,0,0,0,10.42-1.35,12.52,12.52,0,0,0,6.61-5.66A19.88,19.88,0,0,0,793,107.13q0-9.63-4.55-14.14T773.7,88.48a54.32,54.32,0,0,0-5.73.23Z"/>
    <path class="cls-1mm2" d="M814.75,163.44v-25h2.58q4.38,24.45,20.78,24.45,7.36,0,11.42-4.68a15.61,15.61,0,0,0,4.05-10.48A14.15,14.15,0,0,0,850,137.9q-3.56-3.9-13-8.38a92,92,0,0,1-12.68-7,20.69,20.69,0,0,1-6.68-7.84,22.72,22.72,0,0,1-2.39-10.27,19.47,19.47,0,0,1,5.18-13.86A17.2,17.2,0,0,1,833.57,85a21.6,21.6,0,0,1,8.35,1.61q3.92,1.6,8.05,6.65a13,13,0,0,0,2.68-6.83h2.27v20.38h-2.27q-2-8.9-6.94-14a15.64,15.64,0,0,0-11.52-5.1q-6.24,0-9.15,3.76a13.09,13.09,0,0,0-2.92,8.23,12.54,12.54,0,0,0,3.66,9.13q3.62,3.78,13.05,8.49A130.88,130.88,0,0,1,852,124.5a19.56,19.56,0,0,1,6.58,7.54A24.08,24.08,0,0,1,861,143.18q0,10-6,16.24t-16,6.26q-11.49,0-19.18-9.81a20.9,20.9,0,0,0-2.52,7.57Z"/>
    <line class="cls-2mm2" x1="472.26" y1="102.86" x2="472.26" y2="142.99"/>
    <line class="cls-2mm2" x1="468.14" y1="102.86" x2="468.14" y2="142.99"/>
    <line class="cls-2mm2" x1="476.37" y1="102.86" x2="476.37" y2="142.99"/>
    <path class="cls-3mm2" d="M450.69,122.26q0-9.47,6.33-15.19a22.67,22.67,0,0,1,15.8-5.73q9.56,0,16,5.67t6.41,15.46q0,9.5-6.14,15.38t-16.14,5.88q-9.74,0-16-5.88T450.69,122.26Zm6.9.21q0,9.87,3.94,14.81t11.8,4.94a13.34,13.34,0,0,0,10.92-4.94q4-5,4-14.75,0-9.52-3.94-14.6t-11.46-5.08q-7.38,0-11.32,5T457.59,122.47Z"/>
    <path class="cls-3mm2" d="M498.85,97.88h26.63l.33,11.79h-1.42a16.33,16.33,0,0,0-1.88-6.4,6.89,6.89,0,0,0-3.06-3.16,16.25,16.25,0,0,0-5.4-.63h-8v20.07h3.83c2.47,0,4.12-.48,4.93-1.45s1.22-2.9,1.22-5.81h1.51V129H516a17.54,17.54,0,0,0-.52-4.8,4.13,4.13,0,0,0-1.57-2.41,8.64,8.64,0,0,0-4.06-.64h-3.83v11.76a64.47,64.47,0,0,0,.25,7.31,3.89,3.89,0,0,0,1.22,2.56q1,.84,3.78.84h1.39v1.61h-19v-1.61H495a6.18,6.18,0,0,0,3.63-.77,3.64,3.64,0,0,0,1.3-2.39,58.38,58.38,0,0,0,.29-7.55V109.67a55.42,55.42,0,0,0-.29-7.29Z"/>
    <path class="cls-4mm2" d="M174.22,49.6H113.63s-1.9,34.08-3.79,43.54,0,32.19,0,32.19v60.59l117.39-5.68h15.15l1.89-34.08"/>
    <polyline class="cls-4mm2" points="195.04 49.59 244.27 49.59 244.83 117.76"/>
  </g>
  <g id="modal2">
    <g id="Bad_Cup" data-name="Bad Cup">
      <g id="badCup-2" data-name="badCup">
        <g id="Group_126" data-name="Group 126">
          <image id="Rectangle_85" data-name="Rectangle 85" class="cls-5mm2" width="215" height="276" transform="translate(284 265.85) scale(0.65)" xlink:href="modal-021.png"/>
          <g id="Group_125" data-name="Group 125">
            <path id="Path_53" data-name="Path 53" class="cls-6mm2" d="M306.16,309.78l-1.61-9.43a2.43,2.43,0,0,1,1.64-3l.14,0c2.43-.63,23.63-7.88,61.74-16.1,0,0,4-1,5,2.59a54.53,54.53,0,0,0,2.88,7.78Z"/>
            <path id="Path_54" data-name="Path 54" class="cls-7mm2" d="M303.78,317.9l38.48,101.71s28.71-3.2,56.53-14.73l-16.4-107.47S331.11,307.78,303.78,317.9Z"/>
            <path id="Path_55" data-name="Path 55" class="cls-6mm2" d="M300.12,319.49a671.85,671.85,0,0,1,85.8-22.37l-2.24-3.7S324.39,304.17,301.09,315Z"/>
            <path id="Path_56" data-name="Path 56" class="cls-6mm2" d="M379.8,290.15S350,294,302,310.43c0,0-4.41,1.14-1,4.53l82.62-21.54a3,3,0,0,0-2.67-3.37A2.92,2.92,0,0,0,379.8,290.15Z"/>
            <ellipse id="Ellipse_22" data-name="Ellipse 22" class="cls-8mm2" cx="357.1" cy="354.1" rx="24.86" ry="26.73" transform="matrix(0.97, -0.25, 0.25, 0.97, -77.77, 101.52)"/>
            <g id="Group_124" data-name="Group 124">
              <line id="Line_34" data-name="Line 34" class="cls-9mm2" x1="343.55" y1="348.06" x2="371.38" y2="359.71"/>
              <line id="Line_35" data-name="Line 35" class="cls-9mm2" x1="362.09" y1="340.66" x2="351.54" y2="367.1"/>
            </g>
          </g>
        </g>
      </g>
    </g>
    <g id="iconfinder_icon-24-one-finger-tap_315851" data-name="iconfinder icon-24-one-finger-tap 315851">
      <g id="icon-24-one-finger-tap">
        <path id="one-finger-tap" class="cls-10mm2 finger" d="M390.23,408.44a13.41,13.41,0,1,0-20.86,0V400a10.43,10.43,0,1,1,20.86,0ZM397.67,470C410,470,420,459.35,420,447.69h0V429.81a4.47,4.47,0,0,0-8.94,0v1.49h-3v-7.43a4.47,4.47,0,1,0-8.94,0v4.45h-3v-7.43a4.47,4.47,0,0,0-8.94,0V431.3h-3V400a4.47,4.47,0,0,0-8.94,0v33.65c-6.13-6.55-14.2-13.77-17.51-10.44s5.11,12.23,16.77,31.84c5.25,8.84,11.9,14.95,23.1,14.95ZM423,447.69A25.33,25.33,0,0,1,397.67,473c-9.27,0-19.06-4.33-25.8-16.6-9.72-17.71-22.15-29.33-16.23-35.25,4.23-4.24,10.88-.18,16.71,5.27h0V400a7.45,7.45,0,1,1,14.9,0v14.87a7.48,7.48,0,0,1,11.45,3.36,7.44,7.44,0,0,1,12.38,5.57v0a7.45,7.45,0,0,1,11.92,6Z"/>
      </g>
    </g>
    <g id="xxx" class="cls-11mm2">
      <g class="cls-11mm2">
        <path class="cls-12mm2" d="M572.3,268.91l21.57,12.65c5.62,3.27,10.52,6.45,15.78,9.9l.54-.26c.32-6.63,1-12.53,1.6-18.62L615,248.05l17.1-8.36L623,296.33l52.6,30-18,8.8L635.18,321.8c-5.88-3.37-11.14-6.82-16.75-10.54l-.36.17c-.33,6.63-1.1,12.81-1.79,19.61l-3,25.78-17.46,8.54,9.23-59.6-50.38-28.23Z"/>
      </g>
    </g>
  </g>
</svg>
