<svg xmlns="http://www.w3.org/2000/svg" xmlns:xlink="http://www.w3.org/1999/xlink" viewBox="0 0 1776 847">
  <defs>
    <style>
      .cls-1 {
        fill: #d2e2df;
      }

      .cls-2 {
        fill: #7ea7b0;
      }

      .cls-3 {
        fill: #b2cad0;
      }

      .cls-4 {
        fill: #818387;
      }

      .cls-5 {
        fill: #516063;
      }

      .cls-6 {
        fill: #2d3037;
      }

      .cls-7 {
        fill: #3f3f40;
      }

      .cls-8 {
        fill: url(#Unbenannter_Verlauf_17);
      }

      .cls-37, .cls-9 {
        fill: #f7efc9;
      }

      .cls-10 {
        fill: #1e1313;
      }

      .cls-11 {
        fill: url(#Unbenannter_Verlauf_17-2);
      }

      .cls-12 {
        fill: url(#Unbenannter_Verlauf_17-3);
      }

      .cls-13 {
        fill: url(#Unbenannter_Verlauf_17-4);
      }

      .cls-14 {
        fill: #16150f;
      }

      .cls-15 {
        fill: #505f62;
      }

      .cls-16, .cls-24 {
        fill: none;
      }

      .cls-16 {
        stroke: #505f62;
      }

      .cls-16, .cls-24, .cls-37, .cls-38, .cls-39 {
        stroke-miterlimit: 10;
      }

      .cls-17 {
        fill: #85a6ad;
      }

      .cls-18 {
        fill: #262932;
      }

      .cls-19 {
        fill: #140100;
      }

      .cls-20 {
        fill: #57595f;
      }

      .cls-21 {
        fill: #283031;
      }

      .cls-22 {
        fill: #969fa1;
      }

      .cls-23 {
        fill: #170f0f;
      }

      .cls-24 {
        stroke: #c7b299;
      }

      .cls-25 {
        fill: #898487;
      }

      .cls-26 {
        fill: #adaeb0;
      }

      .cls-27 {
        fill: #e6e6e7;
      }

      .cls-28 {
        fill: #dcdfe0;
      }

      .cls-29 {
        fill: #b3b5b7;
      }

      .cls-30 {
        fill: #5b5d62;
      }

      .cls-31 {
        fill: #616265;
      }

      .cls-32 {
        fill: #414244;
      }

      .cls-33 {
        fill: #271112;
      }

      .cls-34 {
        fill: #98b9bf;
      }

      .cls-35 {
        fill: #142c46;
      }

      .cls-36 {
        fill: #274a5c;
      }

      .cls-37 {
        stroke: #f7efc9;
        opacity: 0.57;
      }

      .cls-38 {
        stroke: #333;
      }

      .cls-39 {
        fill: #fff;
        stroke: gray;
      }

      .cls-40 {
        fill: #009173;
      }

      .cls-41 {
        font-size: 60px;
        fill: #999;
        font-family: OpenSans-SemiBold, Open Sans;
        font-weight: 600;
      }
    </style>
    <linearGradient id="Unbenannter_Verlauf_17" data-name="Unbenannter Verlauf 17" x1="1100.74" y1="592.73" x2="1100.42" y2="653.27" gradientUnits="userSpaceOnUse">
      <stop offset="0" stop-color="#f7a371"/>
      <stop offset="0.32" stop-color="#f3f1c7"/>
      <stop offset="0.48" stop-color="#d3cca8"/>
      <stop offset="0.72" stop-color="#a8997e"/>
      <stop offset="0.9" stop-color="#8d7a64"/>
      <stop offset="1" stop-color="#836e5a"/>
    </linearGradient>
    <linearGradient id="Unbenannter_Verlauf_17-2" x1="998.78" y1="564.11" x2="998.41" y2="635.09" xlink:href="#Unbenannter_Verlauf_17"/>
    <linearGradient id="Unbenannter_Verlauf_17-3" x1="1034.63" y1="641.88" x2="1034.45" y2="675.18" xlink:href="#Unbenannter_Verlauf_17"/>
    <linearGradient id="Unbenannter_Verlauf_17-4" x1="510.63" y1="701.88" x2="510.45" y2="735.18" xlink:href="#Unbenannter_Verlauf_17"/>
  </defs>
  <title>background-game</title>
  <g id="backgroundGame">
    <rect class="cls-1" x="2" y="-3" width="1773" height="630"/>
    <path id="_cloud4_" data-name="&lt;cloud4&gt;" class="cls-2" d="M1536.36,248.18s-30.75-8.71-67.58-1.69-42.1,13.49-42.1,13.49-24.28-8.43-40.06-2.25-40.48,13.76-40.48,13.76-58.68,4.5-73.66,0-17.8,5.9-17.8,5.9,8.5,12.92,53,14.33,155,21.06,187.38,9.83,92.68,1.12,101.18-11.52-1.21-31.18-31.16-29.49C1565.1,260.54,1544.86,249.86,1536.36,248.18Z"/>
    <path id="_cloud5_" data-name="&lt;cloud5&gt;" class="cls-3" d="M1718,104c-38-1-57,26-89,5-17.43-11.44-33.08-10.42-43.71-7.12a48.37,48.37,0,0,0-14,6.86l-.28.12-.32.14c-30.14,13-84.62,0-84.62,0s-42.88,15-76.5,12-48.68-11-37.09-38c0,0,73-78,142.57-39,0,0,82.29-19,83.45,14,.06,1.84.13,3.59.19,5.26C1610.91,58.92,1631,55,1646,68c23,20,97,24,97,24S1756,105,1718,104Z"/>
    <path id="_cloud3_" data-name="&lt;cloud3&gt;" class="cls-2" d="M923,156s35.71-14.56,78.47-2.82,48.86,22.56,48.86,22.56,28.2-14.1,46.52-3.76,47,23,47,23,68.13,7.52,85.52,0,20.67,9.87,20.67,9.87-9.87,21.61-61.55,24-180,35.24-217.56,16.45S863.29,247.15,853.42,226s1.41-52.15,36.18-49.33C889.6,176.67,913.1,158.81,923,156Z"/>
    <polygon class="cls-4" points="1 848 1.5 613 1775 613 1775 848 1 848"/>
    <g id="_castle_" data-name="&lt;castle&gt;">
      <image width="551" height="395" transform="translate(854 47)" xlink:href="background-game1.png"/>
    </g>
    <path class="cls-5" d="M1459,624.47s-30.13-69.51-21.09-90.58,15.06-7.37,10-29.49-12-24.23-12-24.23-36.16-27.38-48.21-31.6l-.5-13.16-6-4.22V420.66l-8-7.37v-9.48l-8-5.27s-34.15-23.17-53.23-19-16.07-11.58-33.14,0c0,0-30.13-21.06-92.4-21.06,0,0-61.27-10.53-100.44,3.16,0,0-37.16,3.16-74.32,19,0,0-19.08-11.59-19.08-26.34s-12.05,6.32-12.05,6.32-19.09,5.27-19.09,10.54-12.05,2.1-12.05,14.74-27.12-9.48-34.15,1.06-21.09,26.33-21.09,26.33l-62.27,11.59-41.18-4.22-26.11,9.48-10,9.48v10.53S644,449.1,608.81,487s-96.41,67.41-96.41,67.41l-70.31,53.72L421,625Z"/>
    <path d="M99.5,30.84V33.5S99.47,32.5,99.5,30.84Z"/>
    <path d="M1680.5,35.5V33.24C1680.52,34.66,1680.5,35.5,1680.5,35.5Z"/>
    <g id="_InsideOfCastle_" data-name="&lt;InsideOfCastle&gt;">
      <path d="M.5,476.5v149H1775v-149ZM217,599.5H153.11v-73s28.93-26,63.84,0Zm102.74,0H255.85v-73s28.93-26,63.84,0Zm101.74,0H357.59v-73s28.93-26,63.84,0Zm97.75,0H455.35v-73s28.92-26,63.83,0Zm102.74,0H558.09v-73s28.92-26,63.83,0Zm103.74,0H661.82v-73s28.93-26,63.84,0Zm108.73,0H770.55v-73s28.92-26,63.84,0Zm105.73-1H876.28v-73s28.93-26,63.84,0Zm101.74,1H978v-73s28.93-26,63.84,0Zm102.74,0h-63.84v-73s28.93-26,63.84,0Zm100.74,0h-63.83v-73s28.92-26,63.83,0Zm107.73,0h-63.84v-73s28.93-26,63.84,0Zm105.73,0H1395v-73s28.93-26,63.84,0Zm102.74,0H1497.7v-73s28.93-26,63.84,0Z"/>
      <path d="M112.5-2.5c-13.33,0-14.86,25-15,33.34,0,1.66,0,2.66,0,2.66v592H-.5V-2.5Z"/>
      <path d="M1775-.5V625h-94.5V35.5s0-.84,0-2.26c-.09-7.9-1.45-33.74-15-33.74Z"/>
      <path class="cls-6" d="M1645.5,587.5h130a0,0,0,0,1,0,0v21a17,17,0,0,1-17,17h-113a0,0,0,0,1,0,0v-38A0,0,0,0,1,1645.5,587.5Z" transform="translate(3421 1213) rotate(180)"/>
      <path class="cls-7" d="M1660.5,563.5h115a0,0,0,0,1,0,0v17.35a6.65,6.65,0,0,1-6.65,6.65H1660.5a0,0,0,0,1,0,0v-24A0,0,0,0,1,1660.5,563.5Z" transform="translate(3436 1151) rotate(180)"/>
      <path class="cls-6" d="M-.5,587.5H107.65a21.85,21.85,0,0,1,21.85,21.85V625.5a0,0,0,0,1,0,0H-.5a0,0,0,0,1,0,0v-38A0,0,0,0,1-.5,587.5Z"/>
      <path class="cls-7" d="M-.5,563.5H105.58a8.92,8.92,0,0,1,8.92,8.92V587.5a0,0,0,0,1,0,0H-.5a0,0,0,0,1,0,0v-24A0,0,0,0,1-.5,563.5Z"/>
    </g>
    <g id="_dinnerTable_" data-name="&lt;dinnerTable&gt;">
      <polygon class="cls-6" points="151.5 847.5 334.5 705.5 1380.5 705.5 1520.5 847.5 151.5 847.5"/>
      <rect class="cls-8" x="1093.16" y="600.19" width="14.66" height="77.28"/>
      <path class="cls-9" d="M1100.5,600.19s-7.34-13.71,3.66-21.19C1104.16,579,1106,595.2,1100.5,600.19Z"/>
      <path d="M1107.83,693.67v8.1c3.33.57,5.5,1.47,5.5,2.49,0,.85-1.51,1.63-4,2.18l-7,38.33H1095l-3.67-38c-3.33-.57-5.5-1.47-5.5-2.49s2.17-1.92,5.5-2.49v-8.1h-1.83V678.41c-3.36-.22-5.5-.57-5.5-.95,0-.68,7-1.24,15.58-1.24s15.58.56,15.58,1.24c0,.38-2.14.73-5.5.95v15.26Z"/>
      <ellipse class="cls-10" cx="1098.66" cy="747.88" rx="12.83" ry="3.12"/>
      <g>
        <rect class="cls-11" x="991.16" y="572.85" width="14.66" height="90.62"/>
        <path class="cls-9" d="M998.5,572.85s-7.34-16.08,3.66-24.85C1002.16,548,1004,567,998.5,572.85Z"/>
        <path d="M1005.83,679.67v8.1c3.33.57,5.5,1.47,5.5,2.49,0,.85-1.51,1.63-4,2.18l-7,38.33H993l-3.67-38c-3.33-.57-5.5-1.47-5.5-2.49s2.17-1.92,5.5-2.49v-8.1H987.5V664.41c-3.36-.22-5.5-.57-5.5-.95,0-.68,7-1.24,15.58-1.24s15.58.56,15.58,1.24c0,.38-2.14.73-5.5.95v15.26Z"/>
        <ellipse cx="996.66" cy="733.88" rx="12.83" ry="3.12"/>
      </g>
      <g>
        <rect class="cls-12" x="1027.16" y="646" width="14.66" height="42.46"/>
        <path class="cls-9" d="M1034.5,646.19s-7.34-13.71,3.66-21.19C1038.16,625,1040,641.2,1034.5,646.19Z"/>
        <path d="M1041.83,704.67v8.1c3.33.57,5.5,1.47,5.5,2.49,0,.85-1.51,1.63-4,2.18l-7,38.33H1029l-3.67-38c-3.33-.57-5.5-1.47-5.5-2.49s2.17-1.92,5.5-2.49v-8.1h-1.83V689.41c-3.36-.22-5.5-.57-5.5-.95,0-.68,7-1.24,15.58-1.24s15.58.56,15.58,1.24c0,.38-2.14.73-5.5.95v15.26Z"/>
        <ellipse cx="1032.66" cy="758.88" rx="12.83" ry="3.12"/>
      </g>
      <g>
        <rect class="cls-13" x="503.16" y="706" width="14.66" height="42.46"/>
        <path class="cls-9" d="M510.5,706.19s-7.34-13.71,3.66-21.19C514.16,685,516,701.2,510.5,706.19Z"/>
        <path d="M517.83,764.67v8.1c3.33.57,5.5,1.47,5.5,2.49,0,.85-1.51,1.63-4,2.18l-7,38.33H505l-3.67-38c-3.33-.57-5.5-1.47-5.5-2.49s2.17-1.92,5.5-2.49v-8.1H499.5V749.41c-3.36-.22-5.5-.57-5.5-.95,0-.68,7-1.24,15.58-1.24s15.58.56,15.58,1.24c0,.38-2.14.73-5.5.95v15.26Z"/>
        <ellipse cx="508.66" cy="818.88" rx="12.83" ry="3.12"/>
      </g>
      <g>
        <ellipse class="cls-14" cx="690" cy="757.44" rx="119.61" ry="23.28"/>
        <g>
          <path class="cls-14" d="M670.39,780.72s-4.48,28.09-35,34.52v9.63s54.59,27.29,112.38,0V813.63s-32.21-6.42-35.37-32.91Z"/>
          <path class="cls-15" d="M659.49,812l14.45-17.67s8-1.6,8-6.42-8-3.21-8-3.21h-3.21l-12.85,24.08Z"/>
          <path class="cls-16" d="M641.83,818.45s49.77,19.26,102.75-3.21"/>
        </g>
      </g>
      <g>
        <path class="cls-17" d="M682,775.1s85.09-8,93.12-17.66V718.9s27.29-16,8-33.71S747.79,674,747.79,674L715.68,659.5l-6.42,4.82v3.21L690,669.13l-8-9.63H670.73l-9.63,3.21L637,667.53V674s-22.47-6.42-40.14,4.82,0,30.5,0,30.5l3.22,43.35,9.63,9.63,72.25-1.6Z"/>
        <path class="cls-15" d="M686.78,680.37l-3.21,77.07-73.85,3.21-3.21-36.93s9.63-9.63,11.24-24.08,11.24-8,11.24-8l8-1.6h4.82l4.82-1.61h4.81l1.61-8,11.24,3.21h6.42l1.6-3.21S686.78,675.56,686.78,680.37Z"/>
        <path class="cls-18" d="M685.21,719s16.19,6.5,21-4.88c0,0,6.48,11.38,21,4.88,0,0,37.25,14.64,48.58,0v39S761.32,769.39,682,775.9Z"/>
      </g>
      <path class="cls-15" d="M859,725.3l-6.76,87.9s40.57,23.67,82.83,0V715.15s-20.28-13.52-72.69-3.38C862.41,711.77,845.5,720.22,859,725.3Z"/>
      <path d="M936.79,762.49s16.91-23.67,13.53-32.12c0,0,0-13.53-11.84-6.76L931.72,727V713.46s18.6-5.07,28.74,6.76-3.38,40.58-3.38,40.58l-23.67,40.57-1.69-35.5Z"/>
      <path class="cls-19" d="M865.79,711.77s-3.38,5.07,13.52,5.07,68.83,1.22,49.63-4.46C928.94,712.38,906.36,703.32,865.79,711.77Z"/>
      <path class="cls-17" d="M857.34,759.11s35.5,16.9,76.07,3.38l1.69,50.71s-33.81,23.67-82.83,0Z"/>
      <ellipse class="cls-4" cx="371.5" cy="784.5" rx="83.5" ry="36.5"/>
      <ellipse class="cls-20" cx="367" cy="784" rx="54" ry="21"/>
      <ellipse class="cls-4" cx="1335.5" cy="787.5" rx="83.5" ry="36.5"/>
      <ellipse class="cls-20" cx="1331" cy="787" rx="54" ry="21"/>
      <ellipse class="cls-21" cx="1193.92" cy="742.48" rx="32.05" ry="19.72"/>
      <circle class="cls-15" cx="1155.53" cy="650.34" r="23.28"/>
      <ellipse class="cls-22" cx="1233.14" cy="746.06" rx="13.8" ry="9.49"/>
      <path class="cls-23" d="M1185.71,817.86l12.08,7.54c-22.42,10.35-36.22,0-36.22,0l12.07-7.54v-9.71h-1.72c-13.8-8.62-1.73-17.24-1.73-17.24h3.45V778.83l-5.5-5.5h-.31c-45.88-3.23-75.25-27.26-75.25-27.26,81.92,20.49,172.3.44,174.16,0-27.42,17.32-53.09,25-75.85,27l-3.45,5.76h-1.73v12.08h3.45c13.8,10.35-1.72,17.24-1.72,17.24h-1.73Z"/>
      <path class="cls-24" d="M1127.33,670.23a0,0,0,0,1,0,0l-.09,0A.27.27,0,0,1,1127.33,670.23Z"/>
      <circle class="cls-25" cx="1240.04" cy="736.58" r="9.49"/>
      <ellipse class="cls-25" cx="1254.7" cy="714.16" rx="12.07" ry="9.49"/>
      <ellipse class="cls-25" cx="1222.8" cy="733.13" rx="7.76" ry="9.49"/>
      <circle class="cls-26" cx="1234.87" cy="722.78" r="9.49"/>
      <ellipse class="cls-27" cx="1252.12" cy="730.54" rx="9.49" ry="10.35"/>
      <ellipse class="cls-28" cx="1255.56" cy="743.48" rx="12.94" ry="7.76"/>
      <ellipse class="cls-29" cx="1219.39" cy="713.82" rx="9.37" ry="10.33" transform="translate(-8.49 1412.93) rotate(-60)"/>
      <circle class="cls-29" cx="1208.14" cy="730.54" r="10.35"/>
      <ellipse class="cls-30" cx="1218.48" cy="740.89" rx="8.62" ry="10.35"/>
      <ellipse class="cls-31" cx="1190.89" cy="665" rx="17.25" ry="12.07"/>
      <ellipse class="cls-32" cx="1149.5" cy="658.97" rx="12.07" ry="11.21"/>
      <path class="cls-29" d="M1179.66,657.11s-3.43-22.29,3.47-29.19c0,0-5.18-12.07,3.45-19s19,0,22.42,3.45,15.52,12.07,15.52,12.07,19,10.35,15.52,29.32S1229.69,671,1229.69,671Z"/>
      <path d="M1246.08,668.87c0,.76-3.3,1.45-9,2l-42.19,14.25-6,3.76a8.64,8.64,0,0,1,.31,14v36.22h-10.34V703a8.62,8.62,0,0,1,0-13.8l-13.8-6.9-32.25-11.73-5.47-2h0c2.78-2,28.25-3.49,59.25-3.49C1219.43,665,1246.08,666.75,1246.08,668.87Z"/>
      <ellipse class="cls-33" cx="1147.08" cy="740.01" rx="32.05" ry="19.72"/>
      <ellipse class="cls-4" cx="1147.77" cy="723.64" rx="25.87" ry="15.52" transform="translate(-170.13 400.88) rotate(-18.47)"/>
      <ellipse class="cls-15" cx="1111.55" cy="738.3" rx="13.8" ry="11.21"/>
      <ellipse class="cls-31" cx="1182.27" cy="742.62" rx="19.83" ry="14.66"/>
    </g>
    <path id="_cloud1_" data-name="&lt;cloud1&gt;" class="cls-34" d="M224.29,66.09s45.07-18.38,99-3.56S385,91,385,91s35.58-17.79,58.7-4.75S503,115.31,503,115.31s86,9.49,107.92,0S637,127.76,637,127.76,624.55,155,559.32,158s-227.11,44.47-274.54,20.76S149,181.13,136.53,154.44s1.78-65.82,45.66-62.26C182.19,92.18,211.84,69.65,224.29,66.09Z"/>
    <g id="_dragon1_" data-name="&lt;dragon1&gt;">
      <path class="cls-35" d="M442,249.09a3.14,3.14,0,0,1-1.5-3.51,9.52,9.52,0,0,0-3-2,3.58,3.58,0,0,1-3-2l-.25-.75h-1s.5-2-1-2h-1.51a3.45,3.45,0,0,0-2.51-1.5,9.38,9.38,0,0,0-3-2c-1.5-.5-4.51-3.51-4.51-3.51s-2.51-3-5-4c0,0-.5,0-.5,1.51l-2-3c-1-1.51-1-2.51-1.51-3l-2.51-2.51s-1-1,.51-2c0,0,.5-.5,2,.5l1.51,1s2.51,0,3,1c0,0,4.52,0,5.52,2,0,0,1.5,2,2,2h-1s-2-2-2.51-1.5,1.51,2.51,1.51,2.51,2,1.5,3,1.5v.5h1v1.51h1.51v.5h2.51v.5h2l.51,1,2.51-2,.5.5a3.49,3.49,0,0,0,1-2s1,2,1.51,0l.5-1.5s.5,1.5,1.5-.5l.5-1s.51,2.51,1.51,1.51,3-8.53,2.51-10,1.5-4,1.5-4,0-11.54-.5-13.05-1-4,0-5l-1.5-2s0-1-2.51-1.51-1.51-3.51-.5-3.51c0,0-1.51,2,1,2s2.51,1.5,2.51,1.5a3.91,3.91,0,0,0,1.5,2s-1-9.53,0-11c0,0,0-2-.5-2.51s.5-6,.5-6a6.52,6.52,0,0,0-1.5-3.51s-1-2.51-.5-4c0,0,2,4.52,2.51,4s2.51.5,2.51.5a8.87,8.87,0,0,0,3-.5,52.25,52.25,0,0,1,6-1.51,106.34,106.34,0,0,0,7.54-10.25,27.08,27.08,0,0,0,2.49-4.8l-.5,3.51-1.5,3s2,9.54.5,11a5.44,5.44,0,0,1,2,4v2.51l3.52,4.51,3.51,1,2-1,.5-.5-2,3-2.51,1-3.51,6-2.51,1.5.5,1v8.53a5.48,5.48,0,0,0,3.14,3.88l.38.14-.51.5s-1.5-2-3.51-1.51-5.52,4.52-5.52,4.52h-1.5l-6,7.53v2.51l1,1.5-1.51-1-5.52,3.51-.5,3a12.89,12.89,0,0,1,1,2.51l2,.5s2-1.5,1-2.51-1-1.5-1-1.5h2s1-1,1-1.51,1,0,1,0l.5.5,1.5-1.5,1,1a2.47,2.47,0,0,0,1.5-.5c.5-.5,2,0,2,0s2-1.5,2.51-.5h1a30.42,30.42,0,0,1,9.54-4c6-1.5,18.06-13.54,19.06-19.56l-.5-1h1s-1.51-2.51,2-5,5-8.53,5-8.53-2,12.55-1,14.56c0,0-.51,1-3.52,1,0,0-4.51,10-12,16.56l-4,3.51-2.51,2.51s2.51,1.5,2.51-1,1-1,1-1l1-1.5s1.51-.51,0,2.51c0,0,.51,4-5,4,0,0-4-1.51-7,1s-7,3.52-4,6c0,0,6.52-6.52,5.52-4,0,0,0,1.51,1.5,0s1-2,2.51-2.51a2.2,2.2,0,0,0-.5,1.51c0,1,1.5,0,1.5,0s1.51-1.51,3-1,1.5-1.5.5-2l.5-.51s2,.51,2-1v-.5s1,.5,0,2.51,1,1,1,1a1.09,1.09,0,0,0,.5-1.5s1.51,1,0,3-2.51,3-5,3-3.51-.5-5.52.5-5.52,6-5.52,6l-.5,1.51a7.68,7.68,0,0,1-5-1c-2.5-1.5-7-4.51-10.53-1a15.27,15.27,0,0,1-4.52,2.51s-1,1,0,1.5,4.52,2.51,4.52,2.51l4,.5v1s5-2,6-1.51c0,0-3.51,1-3,2s2,8.53,2,8.53l3.51,2s2-.51,4.52,2c0,0-3-2-5,0,0,0-1,2.51-2,2.51,0,0,.5,2-.5,2.51,0,0,.5,3.51-1.5,4,0,0,3,3,2.5,6.52l3,3s-7.53-6-9-6-4.51-.5-7,1-4,3-3,5c0,0-1.51-1.51-1-5.52,0,0-2-13.05-4-13.05l1-3Z"/>
    </g>
    <path class="cls-3" d="M1585.29,101.88a125.75,125.75,0,0,1-14,6.86A48.37,48.37,0,0,1,1585.29,101.88Z"/>
    <path class="cls-3" d="M1571.34,108.74l-.34.26.06-.14Z"/>
    <path id="_cloud2_" data-name="&lt;cloud2&gt;" class="cls-3" d="M912.36,203.18s-30.75-8.71-67.58-1.69S802.68,215,802.68,215s-24.28-8.43-40.06-2.25-40.48,13.76-40.48,13.76-58.68,4.5-73.66,0-17.8,5.9-17.8,5.9,8.5,12.92,53,14.33,155,21.06,187.38,9.83,92.68,1.12,101.18-11.52-1.21-31.18-31.16-29.49C941.1,215.54,920.86,204.86,912.36,203.18Z"/>
    <path id="_dragon2_" data-name="&lt;dragon2&gt;" class="cls-36" d="M1437,141s22.35,4.47,28.31,8.94,23.09,20.11,23.09,20.11l23.1,31.29s6-2.23,7.45,5.22c0,0,17.13-.75,24.58,6.7a26,26,0,0,1,17.13,6s23.1-.74,40.23,16.39c0,0,8.94,6.71,13.41,6.71V252s-10.06-12.29-22-13.78c0,0-3-8.2-13.41-3.73,0,0-11.92-10.43-23.84-15.64s-17.14-3.73-17.14-3.73-11.17-6.7-20.86-4.47c0,0,.75,8.2-14.9,4.47,0,0-1.49-5.21,0-7.45,0,0-2.23-.74-3,2.24l-.74,2.23h-3s-.75-7.45,5.21-8.94c0,0-4.47-2.23-8.19,6.71v-4.47s3-8.2,14.9-5.22c0,0-10.43-9.68-13.41-17.13l-1.49-2.23-7.45-.75s-3.72-17.88-40.23-20.86C1444.82,159.25,1458.23,151.8,1437,141Z"/>
  </g>
  <g id="pointCounter">
    <g>
      <rect id="_rectangle_" data-name="&lt;rectangle&gt;" class="cls-37" x="-1" y="-3" width="280.5" height="102" rx="19.37"/>
      <g id="_CupForCounting_" data-name="&lt;CupForCounting&gt;">
        <g>
          <path class="cls-38" d="M199.9,28.74l-.85-5a1.28,1.28,0,0,1,.94-1.59c1.27-.33,12.45-4.15,32.53-8.48,0,0,2.11-.55,2.61,1.35a28.55,28.55,0,0,0,1.52,4.11Z"/>
          <path class="cls-39" d="M198.64,33,218.93,86.6a123.72,123.72,0,0,0,29.78-7.76L240,22.22S213,27.68,198.64,33Z"/>
          <path class="cls-38" d="M196.72,33.86a352.59,352.59,0,0,1,45.2-11.79l-1.18-1.94s-31.24,5.66-43.52,11.34Z"/>
          <path class="cls-38" d="M238.71,18.4s-15.71,2.06-41,10.68c0,0-2.32.61-.51,2.39l43.52-11.34A1.6,1.6,0,0,0,238.71,18.4Z"/>
          <ellipse class="cls-40" cx="226.74" cy="52.08" rx="13.1" ry="14.08" transform="translate(-5.81 58.88) rotate(-14.61)"/>
        </g>
      </g>
    </g>
  </g>
  <g id="deathCounter">
    <g>
      <rect class="cls-37" x="-1" y="-3" width="241.5" height="102" rx="17.97"/>
      <text class="cls-41" transform="translate(32.19 71.22)"><tspan xml:space="preserve">X  X  X</tspan></text>
    </g>
  </g>
</svg>
