<svg xmlns="http://www.w3.org/2000/svg" xmlns:xlink="http://www.w3.org/1999/xlink" viewBox="0 0 447 391">
  <defs>
    <style>
      .cls-1 {
        isolation: isolate;
      }

      .cls-2 {
        opacity: 0.34;
        mix-blend-mode: multiply;
      }

      .cls-3 {
        stroke: #333;
      }

      .cls-3, .cls-4 {
        stroke-miterlimit: 10;
      }

      .cls-4 {
        fill: #fff;
        stroke: #a67c52;
      }

      .cls-5 {
        fill: #009173;
      }
    </style>
  </defs>
  <title>good-cup</title>
  <g class="cls-1">
    <g id="goodCup">
      <g id="_group_" data-name="&lt;group&gt;">
        <image class="cls-2" width="215" height="276" transform="translate(110 65)" xlink:href="good-cup1.png"/>
        <g>
          <path class="cls-3" d="M144.23,132.87l-2.48-14.57s-1-3.72,2.75-4.69S181,101.45,239.89,88.75c0,0,6.2-1.62,7.65,4A85.16,85.16,0,0,0,252,104.77Z"/>
          <path class="cls-4" d="M140.55,145.41,200,302.55s44.36-4.94,87.34-22.76L262,113.76S182.78,129.77,140.55,145.41Z"/>
          <path class="cls-3" d="M134.91,147.87s62.51-21.59,132.56-34.56L264,107.6s-91.59,16.6-127.6,33.27Z"/>
          <path class="cls-3" d="M258,102.54s-46.05,6-120.17,31.33c0,0-6.81,1.77-1.48,7L264,107.6S264.4,101.54,258,102.54Z"/>
          <ellipse class="cls-5" cx="222.94" cy="201.33" rx="38.41" ry="41.29" transform="translate(-43.58 62.75) rotate(-14.61)"/>
        </g>
      </g>
    </g>
  </g>
</svg>
