<svg xmlns="http://www.w3.org/2000/svg" xmlns:xlink="http://www.w3.org/1999/xlink" viewBox="0 0 419 391">
  <defs>
    <style>
      .cls-1 {
        isolation: isolate;
      }

      .cls-2 {
        opacity: 0.34;
        mix-blend-mode: multiply;
      }

      .cls-3 {
        fill: #fff;
      }

      .cls-3, .cls-4 {
        stroke: #8c6239;
      }

      .cls-3, .cls-4, .cls-6 {
        stroke-miterlimit: 10;
      }

      .cls-4, .cls-6 {
        fill: none;
      }

      .cls-5 {
        fill: #670e12;
      }

      .cls-6 {
        stroke: #661414;
      }
    </style>
  </defs>
  <title>bad-cup</title>
  <g class="cls-1">
    <g id="badCup">
      <g id="_group_" data-name="&lt;group&gt;">
        <image class="cls-2" width="201" height="240" transform="translate(116 78)" xlink:href="bad-cup1.png"/>
        <g>
          <path id="_path_" data-name="&lt;path&gt;" class="cls-3" d="M167.72,102.06S145.26,142,181.81,179.28L235,190.36s47.49-22,44-67.48Z"/>
          <path id="_path_2" data-name="&lt;path&gt;" class="cls-3" d="M232.34,202.71l-10.51-2.24c2.34,2.83,3.44,6.07,2.81,9.25-.85,4.34-4.71,7.58-10,9.06l-3.51,17.89-.11,0,5.46,25.51c-28.24,3.11-50.78-13.6-50.78-13.6l18.9-17.33,3.52-17.89,2.15.42c-4.1-3.33-6.3-7.66-5.47-11.86.67-3.43,3.22-6.17,6.87-7.89l-11.28-2.41,1-12.33,53.18,11.08Z"/>
          <path id="_path_3" data-name="&lt;path&gt;" class="cls-4" d="M180.61,254.37l13-21.23,8.35,1.8.58,25S183.15,258,180.61,254.37Z"/>
          <path id="_path_4" data-name="&lt;path&gt;" class="cls-3" d="M166.3,247.93l-25.72,5.52s47.54,33.36,96.58,24.85l-20.08-16.77S195,263.27,166.3,247.93Z"/>
          <g id="_path_5" data-name="&lt;path&gt;">
            <path class="cls-5" d="M161.55,122.11l115.76,20.22s-3.43,26.21-42.31,48l-53.19-11.08S157,160.58,161.55,122.11Z"/>
            <path class="cls-6" d="M161.55,122.11l115.76,20.22s-3.43,26.21-42.31,48l-53.19-11.08S157,160.58,161.55,122.11Z"/>
          </g>
        </g>
      </g>
    </g>
  </g>
</svg>
